# xmcd
#
# Track frame offsets: 
#        150
#        10175
#        23685
#        33028
#        44376
#        55926
#        66439
#        80016
#        91960
#        100173
#        110182
#        120928
#        130882
#        139291
#        151676
#        161143
#        172311
#        181865
#        190707
#        201885
#
# Disc length: 2803 seconds
#
# Revision: 0
# Processed by: cddbd v1.5.2PL0 Copyright (c) Steve Scherf et al.
# Submitted via: ExactAudioCopy v1.1
#
DISCID=0d0af114
DTITLE=Johnny Cash - Rebel [CD2)
DYEAR=2015
DGENRE=Country
TTITLE0=Get Rhythm
TTITLE1=Tennessee Flat-Top Box
TTITLE2=I Got Stripes
TTITLE3=Big River
TTITLE4=Transfusion Blues
TTITLE5=Bonanza
TTITLE6=Don't Take Your Guns To Town
TTITLE7=Home Of The Blues
TTITLE8=Guess Things Happen That Way
TTITLE9=Hey Porter
TTITLE10=Train Of Love
TTITLE11=Hank And Joe And Me
TTITLE12=Country Boy
TTITLE13=My Grandfather's Clock
TTITLE14=The Caretaker
TTITLE15=Mean-Eyed Cat
TTITLE16=What Do I Care
TTITLE17=I Want To Go Home
TTITLE18=Remember The Alamo
TTITLE19=I'm Free From The Chain Gang Now
EXTD=
EXTT0=
EXTT1=
EXTT2=
EXTT3=
EXTT4=
EXTT5=
EXTT6=
EXTT7=
EXTT8=
EXTT9=
EXTT10=
EXTT11=
EXTT12=
EXTT13=
EXTT14=
EXTT15=
EXTT16=
EXTT17=
EXTT18=
EXTT19=
PLAYORDER=
